<svg width="32" height="31" viewBox="0 0 32 31" fill="none" xmlns="http://www.w3.org/2000/svg">
<path d="M24.9984 28.9689H2.99841V6.96887H15.2184C15.7707 6.96887 16.2184 6.52116 16.2184 5.96887V5.96887C16.2184 5.41659 15.7707 4.96887 15.2184 4.96887H2.99841C2.46798 4.96887 1.95927 5.17959 1.5842 5.55466C1.20913 5.92973 0.998413 6.43844 0.998413 6.96887V28.9689C0.998413 29.4993 1.20913 30.008 1.5842 30.3831C1.95927 30.7582 2.46798 30.9689 2.99841 30.9689H24.9984C25.5288 30.9689 26.0376 30.7582 26.4126 30.3831C26.7877 30.008 26.9984 29.4993 26.9984 28.9689V16.9689C26.9984 16.4166 26.5507 15.9689 25.9984 15.9689V15.9689C25.4461 15.9689 24.9984 16.4166 24.9984 16.9689V28.9689Z" fill="#CDCDCD"/>
<path d="M30.5284 4.80888L27.1584 1.43888C27.0088 1.28891 26.8311 1.16992 26.6355 1.08874C26.4399 1.00755 26.2302 0.965759 26.0184 0.965759C25.8066 0.965759 25.5969 1.00755 25.4012 1.08874C25.2056 1.16992 25.0279 1.28891 24.8784 1.43888L11.7717 14.6221C11.3773 15.0187 11.1017 15.5177 10.976 16.0626L10.0584 20.0389C10.0111 20.272 10.0161 20.5128 10.0729 20.7438C10.1298 20.9748 10.2372 21.1903 10.3873 21.3749C10.5374 21.5594 10.7266 21.7084 10.9412 21.8111C11.1558 21.9138 11.3905 21.9677 11.6284 21.9689C11.7513 21.9824 11.8754 21.9824 11.9984 21.9689L15.9853 21.0893C16.5487 20.965 17.0643 20.6809 17.4703 20.271L30.5284 7.08888C30.6783 6.93932 30.7973 6.76164 30.8785 6.56602C30.9597 6.37039 31.0015 6.16068 31.0015 5.94888C31.0015 5.73708 30.9597 5.52736 30.8785 5.33174C30.7973 5.13612 30.6783 4.95844 30.5284 4.80888ZM15.8084 19.0489L12.1484 19.8589L12.9984 16.2289L23.3184 5.83888L26.1384 8.65888L15.8084 19.0489ZM27.2684 7.52888L24.4484 4.70888L25.9984 3.12888L28.8384 5.96888L27.2684 7.52888Z" fill="#CDCDCD"/>
</svg>
