<svg width="56" height="67" viewBox="0 0 56 67" fill="none" xmlns="http://www.w3.org/2000/svg">
<path d="M39.9968 0H27.7868V13.8957H39.9968V0Z" fill="white"/>
<path d="M27.7868 25.197H39.9968V44.7947C40.0526 49.5105 38.6958 54.1362 36.099 58.0839C33.5349 61.9194 28.5852 66.4829 19.4277 66.4829C9.45305 66.4829 3.63922 61.8167 0.502197 59.2597L8.20388 49.8621C11.2658 52.3352 14.2149 54.3696 19.4746 54.3696C23.457 54.3696 25.0443 52.7645 25.9741 51.3646C27.2382 49.4203 27.892 47.1465 27.8526 44.8321L27.7868 25.197Z" fill="white"/>
<path d="M21.5597 16.4248H9.34973V28.5567H21.5597V16.4248Z" fill="#29ABE2"/>
<path d="M46.3929 60.7903C46.3929 63.3753 45.0686 64.7658 43.2183 64.7658C41.368 64.7658 40.1564 63.114 40.1564 60.9209C40.1564 58.7279 41.4056 56.9921 43.3216 56.9921C45.2377 56.9921 46.3929 58.6999 46.3929 60.7903ZM41.5747 60.8929C41.5747 62.4514 42.204 63.5993 43.2841 63.5993C44.3642 63.5993 44.9747 62.3861 44.9747 60.7996C44.9747 59.4091 44.4111 58.1026 43.2841 58.1026C42.157 58.1026 41.5747 59.3625 41.5747 60.8929Z" fill="white"/>
<path d="M48.8161 57.104V64.6445H47.4636V57.104H48.8161Z" fill="white"/>
<path d="M50.2814 64.6445V57.104H51.7841L53.3996 60.2116C53.8155 61.0242 54.1855 61.8592 54.5079 62.7127C54.4234 61.7795 54.3858 60.7063 54.3858 59.5117V57.104H55.6256V64.6445H54.2261L52.5919 61.4715C52.1592 60.638 51.7735 59.7812 51.4366 58.9051C51.4366 59.8384 51.5024 60.8929 51.5024 62.1901V64.6351L50.2814 64.6445Z" fill="white"/>
</svg>
