<svg width="31" height="31" viewBox="0 0 31 31" fill="none" xmlns="http://www.w3.org/2000/svg">
<path d="M22.9984 6.96567L22.9984 24.9657C22.9979 25.4959 22.787 26.0043 22.412 26.3793C22.0371 26.7543 21.5287 26.9651 20.9984 26.9657L16.9984 26.9657C16.4681 26.9651 15.9597 26.7543 15.5848 26.3793C15.2098 26.0043 14.9989 25.4959 14.9984 24.9657L14.9984 6.96567C14.9989 6.4354 15.2098 5.927 15.5848 5.55204C15.9597 5.17708 16.4681 4.9662 16.9984 4.96567L20.9984 4.96567C21.5287 4.9662 22.0371 5.17708 22.412 5.55204C22.787 5.927 22.9979 6.4354 22.9984 6.96567ZM16.9984 24.9657L20.9984 24.9657L20.9984 6.96567L16.9984 6.96567L16.9984 24.9657ZM16.9984 6.96567L16.9984 24.9657C16.9979 25.4959 16.787 26.0043 16.412 26.3793C16.0371 26.7542 15.5287 26.9651 14.9984 26.9656L10.9984 26.9656C10.4681 26.9651 9.95974 26.7542 9.58478 26.3793C9.20983 26.0043 8.99894 25.4959 8.99841 24.9656L8.99841 6.96565C8.99894 6.43538 9.20983 5.92698 9.58478 5.55202C9.95974 5.17706 10.4681 4.96618 10.9984 4.96565L14.9984 4.96565C15.5287 4.96618 16.0371 5.17706 16.412 5.55202C16.787 5.92698 16.9979 6.4354 16.9984 6.96567ZM10.9984 24.9656L14.9984 24.9657L14.9984 6.96567L10.9984 6.96565L10.9984 24.9656ZM10.9984 6.96565L10.9984 24.9656C10.9979 25.4959 10.787 26.0043 10.412 26.3793C10.0371 26.7542 9.52868 26.9651 8.99841 26.9656L4.99841 26.9656C4.46814 26.9651 3.95974 26.7542 3.58478 26.3793C3.20983 26.0043 2.99894 25.4959 2.99841 24.9656L2.99841 6.96565C2.99894 6.43538 3.20983 5.92698 3.58478 5.55202C3.95974 5.17706 4.46814 4.96618 4.99841 4.96565L8.99841 4.96565C9.52868 4.96618 10.0371 5.17706 10.412 5.55202C10.787 5.92698 10.9979 6.43538 10.9984 6.96565ZM4.99841 24.9656L8.99841 24.9656L8.99841 6.96565L4.99841 6.96565L4.99841 24.9656Z" fill="#CDCDCD"/>
<path d="M28.9984 6.96589L28.9984 24.9659C28.9979 25.4962 28.787 26.0046 28.412 26.3795C28.0371 26.7545 27.5287 26.9654 26.9984 26.9659L22.9984 26.9659C22.4681 26.9654 21.9597 26.7545 21.5848 26.3795C21.2098 26.0046 20.9989 25.4959 20.9984 24.9657L20.9984 6.96567C20.9989 6.4354 21.2098 5.92722 21.5848 5.55226C21.9597 5.1773 22.4681 4.96642 22.9984 4.96589L26.9984 4.96589C27.5287 4.96642 28.0371 5.1773 28.412 5.55226C28.787 5.92722 28.9979 6.43562 28.9984 6.96589ZM22.9984 24.9657L26.9984 24.9659L26.9984 6.96589L22.9984 6.96567L22.9984 24.9657Z" fill="#CDCDCD"/>
</svg>
