<svg width="31" height="31" viewBox="0 0 31 31" fill="none" xmlns="http://www.w3.org/2000/svg">
<path d="M10.5817 24.7689H21.4151V24.4939C20.6567 23.8522 19.8172 23.3711 18.8963 23.0507C17.9755 22.7295 17.0095 22.5689 15.9984 22.5689C14.9873 22.5689 14.0213 22.7295 13.1005 23.0507C12.1797 23.3711 11.3401 23.8522 10.5817 24.4939V24.7689ZM8.41508 23.5039C9.39008 22.5322 10.5232 21.7666 11.8146 21.2071C13.1052 20.6483 14.4998 20.3689 15.9984 20.3689C17.497 20.3689 18.892 20.6483 20.1833 21.2071C21.4739 21.7666 22.6067 22.5322 23.5817 23.5039V9.36887H8.41508V23.5039ZM15.9984 18.1689C14.9512 18.1689 14.0574 17.793 13.3172 17.0414C12.5769 16.2897 12.2067 15.3822 12.2067 14.3189C12.2067 13.2555 12.5769 12.348 13.3172 11.5964C14.0574 10.8447 14.9512 10.4689 15.9984 10.4689C17.0456 10.4689 17.9394 10.8447 18.6797 11.5964C19.4199 12.348 19.7901 13.2555 19.7901 14.3189C19.7901 15.3822 19.4199 16.2897 18.6797 17.0414C17.9394 17.793 17.0456 18.1689 15.9984 18.1689ZM15.9984 15.9689C16.4498 15.9689 16.8333 15.8083 17.1489 15.4871C17.4652 15.1666 17.6234 14.7772 17.6234 14.3189C17.6234 13.8605 17.4652 13.4711 17.1489 13.1507C16.8333 12.8295 16.4498 12.6689 15.9984 12.6689C15.547 12.6689 15.1635 12.8295 14.8479 13.1507C14.5316 13.4711 14.3734 13.8605 14.3734 14.3189C14.3734 14.7772 14.5316 15.1666 14.8479 15.4871C15.1635 15.8083 15.547 15.9689 15.9984 15.9689ZM7.24841 26.9689C6.69613 26.9689 6.24841 26.5212 6.24841 25.9689V8.16887C6.24841 7.61659 6.69613 7.16887 7.24841 7.16887H9.49841V5.96887C9.49841 5.41659 9.94613 4.96887 10.4984 4.96887H10.6651C11.2174 4.96887 11.6651 5.41659 11.6651 5.96887V7.16887H20.3317V5.96887C20.3317 5.41659 20.7795 4.96887 21.3317 4.96887H21.4984C22.0507 4.96887 22.4984 5.41659 22.4984 5.96887V7.16887H24.7484C25.3007 7.16887 25.7484 7.61659 25.7484 8.16887V25.9689C25.7484 26.5212 25.3007 26.9689 24.7484 26.9689H7.24841Z" fill="#CDCDCD"/>
</svg>
