<svg width="42" height="42" viewBox="0 0 42 42" fill="none" xmlns="http://www.w3.org/2000/svg">
<rect width="42" height="42" rx="21" fill="white"/>
<circle cx="21" cy="21" r="20.5" fill="#FC71FF" stroke="white"/>
<path d="M16.8516 25H14.1584V16.2727H16.9709C17.8175 16.2727 18.5419 16.4474 19.1442 16.7969C19.7464 17.1435 20.2081 17.642 20.5291 18.2926C20.8501 18.9403 21.0107 19.7159 21.0107 20.6193C21.0107 21.5284 20.8487 22.3111 20.5249 22.9673C20.201 23.6207 19.7294 24.1236 19.1101 24.4759C18.4908 24.8253 17.7379 25 16.8516 25ZM15.2152 24.0625H16.7834C17.505 24.0625 18.103 23.9233 18.5774 23.6449C19.0518 23.3665 19.4055 22.9702 19.6385 22.456C19.8714 21.9418 19.9879 21.3295 19.9879 20.6193C19.9879 19.9148 19.8729 19.3082 19.6428 18.7997C19.4126 18.2884 19.0689 17.8963 18.6115 17.6236C18.1541 17.348 17.5845 17.2102 16.9027 17.2102H15.2152V24.0625ZM22.7834 25V16.2727H28.0504V17.2102H23.8402V20.1591H27.7777V21.0966H23.8402V24.0625H28.1186V25H22.7834Z" fill="white"/>
</svg>
