<svg width="31" height="31" viewBox="0 0 31 31" fill="none" xmlns="http://www.w3.org/2000/svg">
<path d="M15.4225 24.8C15.965 24.8 16.4238 24.6124 16.7989 24.2373C17.173 23.8633 17.36 23.405 17.36 22.8625C17.36 22.32 17.173 21.8617 16.7989 21.4876C16.4238 21.1126 15.965 20.925 15.4225 20.925C14.88 20.925 14.4212 21.1126 14.0461 21.4876C13.672 21.8617 13.485 22.32 13.485 22.8625C13.485 23.405 13.672 23.8633 14.0461 24.2373C14.4212 24.6124 14.88 24.8 15.4225 24.8ZM15.655 8.835C16.3783 8.835 16.9596 9.03495 17.3988 9.43485C17.8379 9.83578 18.0575 10.3592 18.0575 11.005C18.0575 11.4442 17.9092 11.8895 17.6126 12.3411C17.3151 12.7937 16.895 13.2654 16.3525 13.7562C15.5775 14.4279 15.0092 15.0737 14.6475 15.6937C14.2858 16.3137 14.105 16.9337 14.105 17.5537C14.105 17.9154 14.2409 18.2187 14.5126 18.4636C14.7834 18.7095 15.0996 18.8325 15.4613 18.8325C15.8229 18.8325 16.1458 18.7033 16.43 18.445C16.7142 18.1867 16.895 17.8638 16.9725 17.4762C17.05 17.0371 17.2246 16.6305 17.4964 16.2564C17.7671 15.8813 18.2125 15.3967 18.8325 14.8025C19.6333 14.0533 20.1955 13.3687 20.5189 12.7487C20.8413 12.1287 21.0025 11.4442 21.0025 10.695C21.0025 9.3775 20.5055 8.2987 19.5114 7.4586C18.5163 6.61953 17.2308 6.2 15.655 6.2C14.57 6.2 13.608 6.40667 12.7689 6.82C11.9288 7.23333 11.2763 7.86625 10.8113 8.71875C10.6304 9.05458 10.5658 9.3837 10.6175 9.7061C10.6692 10.0295 10.85 10.2946 11.16 10.5012C11.4958 10.7079 11.8642 10.7725 12.2652 10.695C12.6651 10.6175 12.9942 10.3979 13.2525 10.0363C13.5367 9.64875 13.8792 9.35167 14.2802 9.145C14.68 8.93833 15.1383 8.835 15.655 8.835ZM15.5 31C13.3817 31 11.3796 30.5929 9.49375 29.7786C7.60792 28.9654 5.9613 27.8612 4.5539 26.4662C3.14547 25.0712 2.03463 23.4308 1.2214 21.545C0.407133 19.6592 0 17.6442 0 15.5C0 13.3558 0.407133 11.3408 1.2214 9.455C2.03463 7.56917 3.14547 5.92875 4.5539 4.53375C5.9613 3.13875 7.60792 2.03412 9.49375 1.21985C11.3796 0.406617 13.3817 0 15.5 0C17.67 0 19.6979 0.406617 21.5837 1.21985C23.4696 2.03412 25.11 3.13875 26.505 4.53375C27.9 5.92875 28.9979 7.56917 29.7987 9.455C30.5996 11.3408 31 13.3558 31 15.5C31 17.6442 30.5996 19.6592 29.7987 21.545C28.9979 23.4308 27.9 25.0712 26.505 26.4662C25.11 27.8612 23.4696 28.9654 21.5837 29.7786C19.6979 30.5929 17.67 31 15.5 31ZM15.5 27.9C18.9617 27.9 21.8937 26.6925 24.2962 24.2776C26.6987 21.8617 27.9 18.9358 27.9 15.5C27.9 12.0642 26.6987 9.13828 24.2962 6.72235C21.8937 4.30745 18.9617 3.1 15.5 3.1C12.1158 3.1 9.20287 4.30745 6.7611 6.72235C4.32037 9.13828 3.1 12.0642 3.1 15.5C3.1 18.9358 4.32037 21.8617 6.7611 24.2776C9.20287 26.6925 12.1158 27.9 15.5 27.9Z" fill="#CDCDCD"/>
</svg>
