<svg width="25" height="25" viewBox="0 0 25 25" fill="none" xmlns="http://www.w3.org/2000/svg">
<g clip-path="url(#clip0_5876_1899)">
<path d="M22 2.13574H4V2.13574C2.89543 2.13574 2 3.03222 2 4.13679C2 4.16513 2 4.18502 2 4.19492V22.1949V22.1949C2 23.2668 2.86998 24.1357 3.94187 24.1357C3.97009 24.1357 3.98998 24.1357 3.99999 24.1357H22C22.01 24.1357 22.0299 24.1357 22.0581 24.1357C23.13 24.1357 24 23.2668 24 22.1949V22.1949V4.19489C24 4.185 24 4.16511 24 4.13679C24 3.03222 23.1046 2.13574 22 2.13574V2.13574ZM15 22.1949H4V14.1949H15V22.1949ZM15 12.1949H4V4.19492L15 4.19489V12.1949ZM22 22.1949H17V4.19492H22V22.1949Z" fill="#CDCDCD"/>
</g>
<defs>
<clipPath id="clip0_5876_1899">
<rect width="24" height="24" fill="white" transform="translate(0.998413 0.965759)"/>
</clipPath>
</defs>
</svg>
