<svg width="42" height="42" viewBox="0 0 42 42" fill="none" xmlns="http://www.w3.org/2000/svg">
<circle cx="21" cy="21" r="20.5" fill="#29ABE2" stroke="white"/>
<path d="M14.4045 25V16.2727H17.4556C18.0636 16.2727 18.565 16.3778 18.9599 16.5881C19.3548 16.7955 19.6488 17.0753 19.842 17.4276C20.0352 17.777 20.1317 18.1648 20.1317 18.5909C20.1317 18.9659 20.065 19.2756 19.9315 19.5199C19.8008 19.7642 19.6275 19.9574 19.4116 20.0994C19.1985 20.2415 18.967 20.3466 18.717 20.4148V20.5C18.984 20.517 19.2525 20.6108 19.5224 20.7812C19.7923 20.9517 20.0181 21.196 20.1999 21.5142C20.3817 21.8324 20.4727 22.2216 20.4727 22.6818C20.4727 23.1193 20.3732 23.5128 20.1744 23.8622C19.9755 24.2116 19.6616 24.4886 19.2326 24.6932C18.8036 24.8977 18.2454 25 17.5579 25H14.4045ZM15.4613 24.0625H17.5579C18.2482 24.0625 18.7383 23.929 19.0281 23.6619C19.3207 23.392 19.467 23.0653 19.467 22.6818C19.467 22.3864 19.3917 22.1136 19.2411 21.8636C19.0906 21.6108 18.8761 21.4091 18.5977 21.2585C18.3192 21.1051 17.9897 21.0284 17.609 21.0284H15.4613V24.0625ZM15.4613 20.108H17.4215C17.7397 20.108 18.0266 20.0455 18.2823 19.9205C18.5408 19.7955 18.7454 19.6193 18.896 19.392C19.0494 19.1648 19.1261 18.8977 19.1261 18.5909C19.1261 18.2074 18.9925 17.8821 18.7255 17.6151C18.4585 17.3452 18.0352 17.2102 17.4556 17.2102H15.4613V20.108ZM21.9194 25V24.233L26.6239 17.2102H21.8683V16.2727H27.8853V17.0398L23.1808 24.0625H27.9364V25H21.9194Z" fill="white"/>
</svg>
